<?xml version="1.0" encoding="utf-8"?>
<!-- Generator: Adobe Illustrator 19.1.0, SVG Export Plug-In . SVG Version: 6.00 Build 0)  -->
<svg version="1.1" id="Calque_1" xmlns="http://www.w3.org/2000/svg" xmlns:xlink="http://www.w3.org/1999/xlink" x="0px" y="0px"
	 viewBox="0 0 731.6 109.9" style="enable-background:new 0 0 731.6 109.9;" xml:space="preserve">
<style type="text/css">
	.st0{fill:#2F007A;}
	.st1{fill:#F0C97B;}
</style>
<g>
	<path class="st0" d="M178.6,100.1V26.1h14v6.5c2.4-4.1,8.4-7.7,16.4-7.7c15.6,0,24.7,11.9,24.7,27.8c0,16.2-10.1,28.1-25.2,28.1
		c-7.4,0-12.8-2.9-15.4-6.5v25.8H178.6z M206.2,37.8c-7.4,0-13.4,5.5-13.4,15c0,9.4,6,15.1,13.4,15.1c7.4,0,13.2-5.5,13.2-15.1
		C219.4,43.3,213.5,37.8,206.2,37.8z"/>
	<path class="st0" d="M257.7,48.8l13.1-2c3-0.4,4-2,4-3.8c0-3.8-2.9-7-9-7c-6.3,0-9.8,4-10.2,8.7L242.9,42
		c0.9-8.4,8.6-17.6,22.9-17.6c16.9,0,23.2,9.6,23.2,20.3V71c0,2.8,0.3,6.6,0.7,8.5h-13.2c-0.3-1.4-0.5-4.3-0.5-6.4
		c-2.7,4.2-7.8,7.9-15.7,7.9c-11.4,0-18.4-7.7-18.4-16.1C241.8,55.4,248.8,50.1,257.7,48.8z M274.9,57.9v-2.4l-12.1,1.8
		c-3.7,0.5-6.6,2.6-6.6,6.7c0,3.1,2.3,6.2,7,6.2C269.3,70.3,274.9,67.3,274.9,57.9z"/>
	<path class="st0" d="M336.1,40.4c-1.6-0.3-3-0.4-4.3-0.4c-7.4,0-13.8,3.6-13.8,15.1v24.4h-14.4V26.1h14V34
		c3.3-7.1,10.6-8.4,15.2-8.4c1.2,0,2.3,0.1,3.4,0.2V40.4z"/>
	<path class="st0" d="M393.7,64.2c-2.7,9.2-11.2,16.9-24.3,16.9c-14.7,0-27.6-10.5-27.6-28.6c0-17.1,12.6-28.1,26.3-28.1
		c16.5,0,26.4,10.5,26.4,27.7c0,2.1-0.2,4.2-0.2,4.5H356c0.3,7.1,6.3,12.2,13.5,12.2c6.7,0,10.4-3.4,12.2-8.1L393.7,64.2z
		 M380.2,46.7c-0.2-5.3-3.7-10.5-11.9-10.5c-7.5,0-11.6,5.6-11.9,10.5H380.2z"/>
	<path class="st0" d="M420.3,79.5h-14.4V26.1h14v6.6c3.3-5.5,9.7-8,15.4-8c13.2,0,19.3,9.4,19.3,21.2v33.7h-14.4V48.3
		c0-6-2.9-10.6-9.9-10.6c-6.3,0-10,4.9-10,11.1V79.5z"/>
	<path class="st0" d="M487.1,26.1h10.8v12.8h-10.8v22.4c0,4.7,2.2,6.2,6.3,6.2c1.7,0,3.7-0.2,4.5-0.4V79c-1.3,0.5-3.9,1.3-8.1,1.3
		c-10.4,0-16.9-6.2-16.9-16.5V38.9h-9.7V26.1h2.7c5.6,0,8.3-3.7,8.3-8.5v-7.5h13V26.1z"/>
	<path class="st0" d="M522,79.5h-14.4V0.9H522v29.6c3.5-4.1,9.3-5.9,14.4-5.9c13.6,0,19.9,9.4,19.9,21.2v33.7h-14.4V48.3
		c0-6-2.9-10.6-9.9-10.6c-6.1,0-9.7,4.6-10,10.4V79.5z"/>
	<path class="st0" d="M618.8,64.2c-2.7,9.2-11.2,16.9-24.3,16.9c-14.7,0-27.6-10.5-27.6-28.6c0-17.1,12.6-28.1,26.3-28.1
		c16.5,0,26.4,10.5,26.4,27.7c0,2.1-0.2,4.2-0.2,4.5h-38.2c0.3,7.1,6.3,12.2,13.5,12.2c6.7,0,10.4-3.4,12.2-8.1L618.8,64.2z
		 M605.4,46.7c-0.2-5.3-3.7-10.5-11.9-10.5c-7.5,0-11.6,5.6-11.9,10.5H605.4z"/>
	<path class="st0" d="M627.3,79.5V66.8l25.3-28.2H628V26.1h43.1v12.1L645,66.9h26.5v12.6H627.3z"/>
	<path class="st0" d="M730.8,64.2c-2.7,9.2-11.2,16.9-24.3,16.9c-14.7,0-27.6-10.5-27.6-28.6c0-17.1,12.6-28.1,26.3-28.1
		c16.5,0,26.4,10.5,26.4,27.7c0,2.1-0.2,4.2-0.2,4.5h-38.2c0.3,7.1,6.3,12.2,13.5,12.2c6.7,0,10.4-3.4,12.2-8.1L730.8,64.2z
		 M717.3,46.7c-0.2-5.3-3.7-10.5-11.9-10.5c-7.5,0-11.6,5.6-11.9,10.5H717.3z"/>
</g>
<g>
	<g>
		<path class="st1" d="M27,0c-9.8,13.2-17,30.7-17,55.2c0,24,7.4,41.3,17,54.7h-9.3C9.2,98.7,0,81.4,0,55.2
			C0.1,28.6,9.2,11.3,17.7,0H27z"/>
		<path class="st1" d="M116.1,109.9c9.6-13.3,17-30.9,17-55.1c0-24.1-7.3-41.4-17-54.7h9.2c8.6,11.1,17.7,28.3,17.7,54.9
			c0,26.4-9,43.6-17.7,55H116.1z"/>
	</g>
</g>
<path class="st0" d="M87.7,93.5c-0.9-0.5-9.5-7.8-11-9c-1.2-1-2-1-2-4v-25c0-3.1,7.3-12.5,15-20c5.8-5.6,18-20,18-20H71.4H35.1
	c0,0,12.2,14.4,18,20c7.7,7.5,15,16.9,15,20v25c0,3-0.8,3-2,4c-1.5,1.2-10.1,8.5-11,9c-2.1,1.2-3,3.4-3,5v3h19.3h19.3v-3
	C90.7,96.9,89.8,94.7,87.7,93.5z M58.2,30.5c-2.5-2.4-5.3-5.4-7.6-8h20.9h20.9c-2.4,2.6-5.2,5.6-7.6,8c-0.5,0.5-8.3,8.2-13.2,15.9
	C66.5,38.7,58.7,31,58.2,30.5z M71.4,94.5h-5.8c2.3-1.5,5.6-3.6,5.8-3.7c0.2,0.2,3.5,2.2,5.8,3.7H71.4z"/>
</svg>
